<?xml version="1.0" encoding="UTF-8"?>
<svg xmlns="http://www.w3.org/2000/svg" version="1.1" viewBox="0 0 1137 861">
  <!-- Generator: Adobe Illustrator 28.7.2, SVG Export Plug-In . SVG Version: 1.2.0 Build 154)  -->
  <g>
    <g id="Hexes">
      <g id="Row0">
        <g id="Hex0">
          <polygon points="325.5 196.48 325.5 103.52 406 57.05 486.5 103.52 486.5 196.48 406 242.95 325.5 196.48" fill="#fff"/>
          <path d="M406,57.62l80,46.19v92.38l-80,46.19-80-46.19v-92.38l80-46.19M406,56.47l-81,46.77v93.53l81,46.77,81-46.77v-93.53l-81-46.77h0Z"/>
        </g>
        <g id="Hex1">
          <polygon points="487.5 196.8 487.5 103.85 568 57.37 648.5 103.85 648.5 196.8 568 243.28 487.5 196.8" fill="#fff"/>
          <path d="M568,57.95l80,46.19v92.38l-80,46.19-80-46.19v-92.38l80-46.19M568,56.8l-81,46.77v93.53l81,46.77,81-46.77v-93.53l-81-46.77h0Z"/>
        </g>
        <g id="Hex2">
          <polygon points="649.5 196.8 649.5 103.85 730 57.37 810.5 103.85 810.5 196.8 730 243.28 649.5 196.8" fill="#fff"/>
          <path d="M730,57.95l80,46.19v92.38l-80,46.19-80-46.19v-92.38l80-46.19M730,56.8l-81,46.77v93.53l81,46.77,81-46.77v-93.53l-81-46.77h0Z"/>
        </g>
      </g>
      <g id="Row1">
        <g id="Hex3">
          <polygon points="244.5 336.52 244.5 243.57 325 197.09 405.5 243.57 405.5 336.52 325 383 244.5 336.52" fill="#fff"/>
          <path d="M325,197.67l80,46.19v92.38l-80,46.19-80-46.19v-92.38l80-46.19M325,196.52l-81,46.77v93.53l81,46.77,81-46.77v-93.53l-81-46.77h0Z"/>
        </g>
        <g id="Hex4">
          <polygon points="406.5 336.85 406.5 243.9 487 197.42 567.5 243.9 567.5 336.85 487 383.33 406.5 336.85" fill="#fff"/>
          <path d="M487,198l80,46.19v92.38l-80,46.19-80-46.19v-92.38l80-46.19M487,196.84l-81,46.77v93.53l81,46.77,81-46.77v-93.53l-81-46.77h0Z"/>
        </g>
        <g id="Hex5">
          <polygon points="568.5 336.85 568.5 243.9 649 197.42 729.5 243.9 729.5 336.85 649 383.33 568.5 336.85" fill="#fff"/>
          <path d="M649,198l80,46.19v92.38l-80,46.19-80-46.19v-92.38l80-46.19M649,196.84l-81,46.77v93.53l81,46.77,81-46.77v-93.53l-81-46.77h0Z"/>
        </g>
        <g id="Hex6">
          <polygon points="730.5 336.69 730.5 243.73 811 197.26 891.5 243.73 891.5 336.69 811 383.16 730.5 336.69" fill="#fff"/>
          <path d="M811,197.83l80,46.19v92.38l-80,46.19-80-46.19v-92.38l80-46.19M811,196.68l-81,46.77v93.53l81,46.77,81-46.77v-93.53l-81-46.77h0Z"/>
        </g>
      </g>
      <g id="Row2">
        <g id="Hex8">
          <polygon points="325.5 476.52 325.5 383.57 406 337.09 486.5 383.57 486.5 476.52 406 523 325.5 476.52" fill="#fff"/>
          <path d="M406,337.67l80,46.19v92.38l-80,46.19-80-46.19v-92.38l80-46.19M406,336.52l-81,46.77v93.53l81,46.77,81-46.77v-93.53l-81-46.77h0Z"/>
        </g>
        <g id="Hex9">
          <polygon points="487.5 476.85 487.5 383.9 568 337.42 648.5 383.9 648.5 476.85 568 523.33 487.5 476.85" fill="#fff"/>
          <path d="M568,338l80,46.19v92.38l-80,46.19-80-46.19v-92.38l80-46.19M568,336.84l-81,46.77v93.53l81,46.77,81-46.77v-93.53l-81-46.77h0Z"/>
        </g>
        <g id="Hex10">
          <polygon points="649.5 476.85 649.5 383.9 730 337.42 810.5 383.9 810.5 476.85 730 523.33 649.5 476.85" fill="#fff"/>
          <path d="M730,338l80,46.19v92.38l-80,46.19-80-46.19v-92.38l80-46.19M730,336.84l-81,46.77v93.53l81,46.77,81-46.77v-93.53l-81-46.77h0Z"/>
        </g>
        <g id="Hex11">
          <polygon points="811.5 476.69 811.5 383.73 892 337.26 972.5 383.73 972.5 476.69 892 523.16 811.5 476.69" fill="#fff"/>
          <path d="M892,337.83l80,46.19v92.38l-80,46.19-80-46.19v-92.38l80-46.19M892,336.68l-81,46.77v93.53l81,46.77,81-46.77v-93.53l-81-46.77h0Z"/>
        </g>
        <g id="Hex7">
          <polygon points="163.5 476.29 163.5 383.34 244 336.86 324.5 383.34 324.5 476.29 244 522.77 163.5 476.29" fill="#fff"/>
          <path d="M244,337.44l80,46.19v92.38l-80,46.19-80-46.19v-92.38l80-46.19M244,336.29l-81,46.77v93.53l81,46.77,81-46.77v-93.53l-81-46.77h0Z"/>
        </g>
      </g>
      <g id="Row4">
        <g id="Hex16">
          <polygon points="325.5 757.13 325.5 664.18 406 617.7 486.5 664.18 486.5 757.13 406 803.61 325.5 757.13" fill="#fff"/>
          <path d="M406,618.28l80,46.19v92.38l-80,46.19-80-46.19v-92.38l80-46.19M406,617.13l-81,46.77v93.53l81,46.77,81-46.77v-93.53l-81-46.77h0Z"/>
        </g>
        <g id="Hex17">
          <polygon points="487.5 756.81 487.5 663.85 568 617.38 648.5 663.85 648.5 756.81 568 803.28 487.5 756.81" fill="#fff"/>
          <path d="M568,617.95l80,46.19v92.38l-80,46.19-80-46.19v-92.38l80-46.19M568,616.8l-81,46.77v93.53l81,46.77,81-46.77v-93.53l-81-46.77h0Z"/>
        </g>
        <g id="Hex18">
          <polygon points="649.5 756.81 649.5 663.85 730 617.38 810.5 663.85 810.5 756.81 730 803.28 649.5 756.81" fill="#fff"/>
          <path d="M730,617.95l80,46.19v92.38l-80,46.19-80-46.19v-92.38l80-46.19M730,616.8l-81,46.77v93.53l81,46.77,81-46.77v-93.53l-81-46.77h0Z"/>
        </g>
      </g>
      <g id="Row3">
        <g id="Hex12">
          <polygon points="244.5 617.08 244.5 524.13 325 477.66 405.5 524.13 405.5 617.08 325 663.56 244.5 617.08" fill="#fff"/>
          <path d="M325,478.23l80,46.19v92.38l-80,46.19-80-46.19v-92.38l80-46.19M325,477.08l-81,46.77v93.53l81,46.77,81-46.77v-93.53l-81-46.77h0Z"/>
        </g>
        <g id="Hex13">
          <polygon points="406.5 616.76 406.5 523.81 487 477.33 567.5 523.81 567.5 616.76 487 663.24 406.5 616.76" fill="#fff"/>
          <path d="M487,477.91l80,46.19v92.38l-80,46.19-80-46.19v-92.38l80-46.19M487,476.75l-81,46.77v93.53l81,46.77,81-46.77v-93.53l-81-46.77h0Z"/>
        </g>
        <g id="Hex14">
          <polygon points="568.5 616.76 568.5 523.81 649 477.33 729.5 523.81 729.5 616.76 649 663.24 568.5 616.76" fill="#fff"/>
          <path d="M649,477.91l80,46.19v92.38l-80,46.19-80-46.19v-92.38l80-46.19M649,476.75l-81,46.77v93.53l81,46.77,81-46.77v-93.53l-81-46.77h0Z"/>
        </g>
        <g id="Hex15">
          <polygon points="730.5 616.92 730.5 523.97 811 477.49 891.5 523.97 891.5 616.92 811 663.4 730.5 616.92" fill="#fff"/>
          <path d="M811,478.07l80,46.19v92.38l-80,46.19-80-46.19v-92.38l80-46.19M811,476.91l-81,46.77v93.53l81,46.77,81-46.77v-93.53l-81-46.77h0Z"/>
        </g>
      </g>
    </g>
    <g id="Roads">
      <g id="Vertex0">
        <polygon points="310.5 121.5 310.5 102.19 325 85.76 339.5 102.19 339.5 121.5 310.5 121.5" fill="#fff"/>
        <path d="M325,86.51l14,15.87v18.62h-28v-18.62l14-15.87M325,85l-15,17v20h30v-20l-15-17h0Z"/>
      </g>
      <g id="Vertex1">
        <polygon points="391.5 74.5 391.5 55.19 406 38.76 420.5 55.19 420.5 74.5 391.5 74.5" fill="#fff"/>
        <path d="M406,39.51l14,15.87v18.62h-28v-18.62l14-15.87M406,38l-15,17v20h30v-20l-15-17h0Z"/>
      </g>
      <g id="Vertex2">
        <polygon points="472.5 117.5 472.5 98.19 487 81.76 501.5 98.19 501.5 117.5 472.5 117.5" fill="#fff"/>
        <path d="M487,82.51l14,15.87v18.62h-28v-18.62l14-15.87M487,81l-15,17v20h30v-20l-15-17h0Z"/>
      </g>
      <g id="Vertex3">
        <polygon points="554.5 74.5 554.5 55.19 569 38.76 583.5 55.19 583.5 74.5 554.5 74.5" fill="#fff"/>
        <path d="M569,39.51l14,15.87v18.62h-28v-18.62l14-15.87M569,38l-15,17v20h30v-20l-15-17h0Z"/>
      </g>
      <g id="Vertex4">
        <polygon points="634.5 121.5 634.5 102.19 649 85.76 663.5 102.19 663.5 121.5 634.5 121.5" fill="#fff"/>
        <path d="M649,86.51l14,15.87v18.62h-28v-18.62l14-15.87M649,85l-15,17v20h30v-20l-15-17h0Z"/>
      </g>
      <g id="Vertex5">
        <polygon points="715.5 74.5 715.5 55.19 730 38.76 744.5 55.19 744.5 74.5 715.5 74.5" fill="#fff"/>
        <path d="M730,39.51l14,15.87v18.62h-28v-18.62l14-15.87M730,38l-15,17v20h30v-20l-15-17h0Z"/>
      </g>
      <g id="Vertex6">
        <polygon points="796.5 117.5 796.5 98.19 811 81.76 825.5 98.19 825.5 117.5 796.5 117.5" fill="#fff"/>
        <path d="M811,82.51l14,15.87v18.62h-28v-18.62l14-15.87M811,81l-15,17v20h30v-20l-15-17h0Z"/>
      </g>
      <g id="Vertex7">
        <polygon points="229.5 257.5 229.5 238.19 244 221.76 258.5 238.19 258.5 257.5 229.5 257.5" fill="#fff"/>
        <path d="M244,222.51l14,15.87v18.62h-28v-18.62l14-15.87M244,221l-15,17v20h30v-20l-15-17h0Z"/>
      </g>
      <g id="Vertex8">
        <polygon points="310.5 214.5 310.5 195.19 325 178.76 339.5 195.19 339.5 214.5 310.5 214.5" fill="#fff"/>
        <path d="M325,179.51l14,15.87v18.62h-28v-18.62l14-15.87M325,178l-15,17v20h30v-20l-15-17h0Z"/>
      </g>
      <g id="Vertex9">
        <polygon points="391.5 257.5 391.5 238.19 406 221.76 420.5 238.19 420.5 257.5 391.5 257.5" fill="#fff"/>
        <path d="M406,222.51l14,15.87v18.62h-28v-18.62l14-15.87M406,221l-15,17v20h30v-20l-15-17h0Z"/>
      </g>
      <g id="Vertex10">
        <polygon points="472.5 214.5 472.5 195.19 487 178.76 501.5 195.19 501.5 214.5 472.5 214.5" fill="#fff"/>
        <path d="M487,179.51l14,15.87v18.62h-28v-18.62l14-15.87M487,178l-15,17v20h30v-20l-15-17h0Z"/>
      </g>
      <g id="Vertex11">
        <polygon points="554.5 257.5 554.5 238.19 569 221.76 583.5 238.19 583.5 257.5 554.5 257.5" fill="#fff"/>
        <path d="M569,222.51l14,15.87v18.62h-28v-18.62l14-15.87M569,221l-15,17v20h30v-20l-15-17h0Z"/>
      </g>
      <g id="Vertex12">
        <polygon points="634.5 214.5 634.5 195.19 649 178.76 663.5 195.19 663.5 214.5 634.5 214.5" fill="#fff"/>
        <path d="M649,179.51l14,15.87v18.62h-28v-18.62l14-15.87M649,178l-15,17v20h30v-20l-15-17h0Z"/>
      </g>
      <g id="Vertex13">
        <polygon points="715.5 257.5 715.5 238.19 730 221.76 744.5 238.19 744.5 257.5 715.5 257.5" fill="#fff"/>
        <path d="M730,222.51l14,15.87v18.62h-28v-18.62l14-15.87M730,221l-15,17v20h30v-20l-15-17h0Z"/>
      </g>
      <g id="Vertex14">
        <polygon points="796.5 214.5 796.5 195.19 811 178.76 825.5 195.19 825.5 214.5 796.5 214.5" fill="#fff"/>
        <path d="M811,179.51l14,15.87v18.62h-28v-18.62l14-15.87M811,178l-15,17v20h30v-20l-15-17h0Z"/>
      </g>
      <g id="Vertex15">
        <polygon points="877.5 257.5 877.5 238.19 892 221.76 906.5 238.19 906.5 257.5 877.5 257.5" fill="#fff"/>
        <path d="M892,222.51l14,15.87v18.62h-28v-18.62l14-15.87M892,221l-15,17v20h30v-20l-15-17h0Z"/>
      </g>
      <g id="Vertex16">
        <polygon points="148.5 401.5 148.5 382.19 163 365.76 177.5 382.19 177.5 401.5 148.5 401.5" fill="#fff"/>
        <path d="M163,366.51l14,15.87v18.62h-28v-18.62l14-15.87M163,365l-15,17v20h30v-20l-15-17h0Z"/>
      </g>
      <g id="Vertex17">
        <polygon points="229.5 354.5 229.5 335.19 244 318.76 258.5 335.19 258.5 354.5 229.5 354.5" fill="#fff"/>
        <path d="M244,319.51l14,15.87v18.62h-28v-18.62l14-15.87M244,318l-15,17v20h30v-20l-15-17h0Z"/>
      </g>
      <g id="Vertex18">
        <polygon points="309.5 395.5 309.5 376.19 324 359.76 338.5 376.19 338.5 395.5 309.5 395.5" fill="#fff"/>
        <path d="M324,360.51l14,15.87v18.62h-28v-18.62l14-15.87M324,359l-15,17v20h30v-20l-15-17h0Z"/>
      </g>
      <g id="Vertex19">
        <polygon points="391.5 354.5 391.5 335.19 406 318.76 420.5 335.19 420.5 354.5 391.5 354.5" fill="#fff"/>
        <path d="M406,319.51l14,15.87v18.62h-28v-18.62l14-15.87M406,318l-15,17v20h30v-20l-15-17h0Z"/>
      </g>
      <g id="Vertex20">
        <polygon points="472.5 395.5 472.5 376.19 487 359.76 501.5 376.19 501.5 395.5 472.5 395.5" fill="#fff"/>
        <path d="M487,360.51l14,15.87v18.62h-28v-18.62l14-15.87M487,359l-15,17v20h30v-20l-15-17h0Z"/>
      </g>
      <g id="Vertex21">
        <polygon points="553.5 355.5 553.5 336.19 568 319.76 582.5 336.19 582.5 355.5 553.5 355.5" fill="#fff"/>
        <path d="M568,320.51l14,15.87v18.62h-28v-18.62l14-15.87M568,319l-15,17v20h30v-20l-15-17h0Z"/>
      </g>
      <g id="Vertex22">
        <polygon points="634.5 393.5 634.5 374.19 649 357.76 663.5 374.19 663.5 393.5 634.5 393.5" fill="#fff"/>
        <path d="M649,358.51l14,15.87v18.62h-28v-18.62l14-15.87M649,357l-15,17v20h30v-20l-15-17h0Z"/>
      </g>
      <g id="Vertex23">
        <polygon points="715.5 354.5 715.5 335.19 730 318.76 744.5 335.19 744.5 354.5 715.5 354.5" fill="#fff"/>
        <path d="M730,319.51l14,15.87v18.62h-28v-18.62l14-15.87M730,318l-15,17v20h30v-20l-15-17h0Z"/>
      </g>
      <g id="Vertex24">
        <polygon points="796.5 395.5 796.5 376.19 811 359.76 825.5 376.19 825.5 395.5 796.5 395.5" fill="#fff"/>
        <path d="M811,360.51l14,15.87v18.62h-28v-18.62l14-15.87M811,359l-15,17v20h30v-20l-15-17h0Z"/>
      </g>
      <g id="Vertex25">
        <polygon points="877.5 354.5 877.5 335.19 892 318.76 906.5 335.19 906.5 354.5 877.5 354.5" fill="#fff"/>
        <path d="M892,319.51l14,15.87v18.62h-28v-18.62l14-15.87M892,318l-15,17v20h30v-20l-15-17h0Z"/>
      </g>
      <g id="Vertex26">
        <polygon points="958.5 395.5 958.5 376.19 973 359.76 987.5 376.19 987.5 395.5 958.5 395.5" fill="#fff"/>
        <path d="M973,360.51l14,15.87v18.62h-28v-18.62l14-15.87M973,359l-15,17v20h30v-20l-15-17h0Z"/>
      </g>
      <g id="Vertex27">
        <polygon points="148.5 494.5 148.5 475.19 163 458.76 177.5 475.19 177.5 494.5 148.5 494.5" fill="#fff"/>
        <path d="M163,459.51l14,15.87v18.62h-28v-18.62l14-15.87M163,458l-15,17v20h30v-20l-15-17h0Z"/>
      </g>
      <g id="Vertex28">
        <polygon points="229.5 536.5 229.5 517.19 244 500.76 258.5 517.19 258.5 536.5 229.5 536.5" fill="#fff"/>
        <path d="M244,501.51l14,15.87v18.62h-28v-18.62l14-15.87M244,500l-15,17v20h30v-20l-15-17h0Z"/>
      </g>
      <g id="Vertex29">
        <polygon points="309.5 494.5 309.5 475.19 324 458.76 338.5 475.19 338.5 494.5 309.5 494.5" fill="#fff"/>
        <path d="M324,459.51l14,15.87v18.62h-28v-18.62l14-15.87M324,458l-15,17v20h30v-20l-15-17h0Z"/>
      </g>
      <g id="Vertex30">
        <polygon points="391.5 536.5 391.5 517.19 406 500.76 420.5 517.19 420.5 536.5 391.5 536.5" fill="#fff"/>
        <path d="M406,501.51l14,15.87v18.62h-28v-18.62l14-15.87M406,500l-15,17v20h30v-20l-15-17h0Z"/>
      </g>
      <g id="Vertex31">
        <polygon points="472.5 494.5 472.5 475.19 487 458.76 501.5 475.19 501.5 494.5 472.5 494.5" fill="#fff"/>
        <path d="M487,459.51l14,15.87v18.62h-28v-18.62l14-15.87M487,458l-15,17v20h30v-20l-15-17h0Z"/>
      </g>
      <g id="Vertex32">
        <polygon points="553.5 536.5 553.5 517.19 568 500.76 582.5 517.19 582.5 536.5 553.5 536.5" fill="#fff"/>
        <path d="M568,501.51l14,15.87v18.62h-28v-18.62l14-15.87M568,500l-15,17v20h30v-20l-15-17h0Z"/>
      </g>
      <g id="Vertex33">
        <polygon points="638.5 495.5 638.5 476.19 653 459.76 667.5 476.19 667.5 495.5 638.5 495.5" fill="#fff"/>
        <path d="M653,460.51l14,15.87v18.62h-28v-18.62l14-15.87M653,459l-15,17v20h30v-20l-15-17h0Z"/>
      </g>
      <g id="Vertex34">
        <polygon points="715.5 536.5 715.5 517.19 730 500.76 744.5 517.19 744.5 536.5 715.5 536.5" fill="#fff"/>
        <path d="M730,501.51l14,15.87v18.62h-28v-18.62l14-15.87M730,500l-15,17v20h30v-20l-15-17h0Z"/>
      </g>
      <g id="Vertex35">
        <polygon points="796.5 495.5 796.5 476.19 811 459.76 825.5 476.19 825.5 495.5 796.5 495.5" fill="#fff"/>
        <path d="M811,460.51l14,15.87v18.62h-28v-18.62l14-15.87M811,459l-15,17v20h30v-20l-15-17h0Z"/>
      </g>
      <g id="Vertex36">
        <polygon points="877.5 536.5 877.5 517.19 892 500.76 906.5 517.19 906.5 536.5 877.5 536.5" fill="#fff"/>
        <path d="M892,501.51l14,15.87v18.62h-28v-18.62l14-15.87M892,500l-15,17v20h30v-20l-15-17h0Z"/>
      </g>
      <g id="Vertex37">
        <polygon points="958.5 489.5 958.5 470.19 973 453.76 987.5 470.19 987.5 489.5 958.5 489.5" fill="#fff"/>
        <path d="M973,454.51l14,15.87v18.62h-28v-18.62l14-15.87M973,453l-15,17v20h30v-20l-15-17h0Z"/>
      </g>
      <g id="Vertex38">
        <polygon points="229.5 635.5 229.5 616.19 244 599.76 258.5 616.19 258.5 635.5 229.5 635.5" fill="#fff"/>
        <path d="M244,600.51l14,15.87v18.62h-28v-18.62l14-15.87M244,599l-15,17v20h30v-20l-15-17h0Z"/>
      </g>
      <g id="Vertex39">
        <polygon points="310.5 681.5 310.5 662.19 325 645.76 339.5 662.19 339.5 681.5 310.5 681.5" fill="#fff"/>
        <path d="M325,646.51l14,15.87v18.62h-28v-18.62l14-15.87M325,645l-15,17v20h30v-20l-15-17h0Z"/>
      </g>
      <g id="Vertex40">
        <polygon points="391.5 634.5 391.5 615.19 406 598.76 420.5 615.19 420.5 634.5 391.5 634.5" fill="#fff"/>
        <path d="M406,599.51l14,15.87v18.62h-28v-18.62l14-15.87M406,598l-15,17v20h30v-20l-15-17h0Z"/>
      </g>
      <g id="Vertex41">
        <polygon points="472.5 681.5 472.5 662.19 487 645.76 501.5 662.19 501.5 681.5 472.5 681.5" fill="#fff"/>
        <path d="M487,646.51l14,15.87v18.62h-28v-18.62l14-15.87M487,645l-15,17v20h30v-20l-15-17h0Z"/>
      </g>
      <g id="Vertex42">
        <polygon points="553.5 634.5 553.5 615.19 568 598.76 582.5 615.19 582.5 634.5 553.5 634.5" fill="#fff"/>
        <path d="M568,599.51l14,15.87v18.62h-28v-18.62l14-15.87M568,598l-15,17v20h30v-20l-15-17h0Z"/>
      </g>
      <g id="Vertex43">
        <polygon points="631.5 675.5 631.5 656.19 646 639.76 660.5 656.19 660.5 675.5 631.5 675.5" fill="#fff"/>
        <path d="M646,640.51l14,15.87v18.62h-28v-18.62l14-15.87M646,639l-15,17v20h30v-20l-15-17h0Z"/>
      </g>
      <g id="Vertex44">
        <polygon points="715.5 634.5 715.5 615.19 730 598.76 744.5 615.19 744.5 634.5 715.5 634.5" fill="#fff"/>
        <path d="M730,599.51l14,15.87v18.62h-28v-18.62l14-15.87M730,598l-15,17v20h30v-20l-15-17h0Z"/>
      </g>
      <g id="Vertex45">
        <polygon points="796.5 675.5 796.5 656.19 811 639.76 825.5 656.19 825.5 675.5 796.5 675.5" fill="#fff"/>
        <path d="M811,640.51l14,15.87v18.62h-28v-18.62l14-15.87M811,639l-15,17v20h30v-20l-15-17h0Z"/>
      </g>
      <g id="Vertex46">
        <polygon points="877.5 634.5 877.5 615.19 892 598.76 906.5 615.19 906.5 634.5 877.5 634.5" fill="#fff"/>
        <path d="M892,599.51l14,15.87v18.62h-28v-18.62l14-15.87M892,598l-15,17v20h30v-20l-15-17h0Z"/>
      </g>
      <g id="Vertex47">
        <polygon points="310.5 774.5 310.5 755.19 325 738.76 339.5 755.19 339.5 774.5 310.5 774.5" fill="#fff"/>
        <path d="M325,739.51l14,15.87v18.62h-28v-18.62l14-15.87M325,738l-15,17v20h30v-20l-15-17h0Z"/>
      </g>
      <g id="Vertex48">
        <polygon points="391.5 817.5 391.5 798.19 406 781.76 420.5 798.19 420.5 817.5 391.5 817.5" fill="#fff"/>
        <path d="M406,782.51l14,15.87v18.62h-28v-18.62l14-15.87M406,781l-15,17v20h30v-20l-15-17h0Z"/>
      </g>
      <g id="Vertex49">
        <polygon points="472.5 770.5 472.5 751.19 487 734.76 501.5 751.19 501.5 770.5 472.5 770.5" fill="#fff"/>
        <path d="M487,735.51l14,15.87v18.62h-28v-18.62l14-15.87M487,734l-15,17v20h30v-20l-15-17h0Z"/>
      </g>
      <g id="Vertex50">
        <polygon points="553.5 816.5 553.5 797.19 568 780.76 582.5 797.19 582.5 816.5 553.5 816.5" fill="#fff"/>
        <path d="M568,781.51l14,15.87v18.62h-28v-18.62l14-15.87M568,780l-15,17v20h30v-20l-15-17h0Z"/>
      </g>
      <g id="Vertex51">
        <polygon points="634.5 774.5 634.5 755.19 649 738.76 663.5 755.19 663.5 774.5 634.5 774.5" fill="#fff"/>
        <path d="M649,739.51l14,15.87v18.62h-28v-18.62l14-15.87M649,738l-15,17v20h30v-20l-15-17h0Z"/>
      </g>
      <g id="Vertex52">
        <polygon points="715.5 821.5 715.5 802.19 730 785.76 744.5 802.19 744.5 821.5 715.5 821.5" fill="#fff"/>
        <path d="M730,786.51l14,15.87v18.62h-28v-18.62l14-15.87M730,785l-15,17v20h30v-20l-15-17h0Z"/>
      </g>
      <g id="Vertex53">
        <polygon points="796.5 775.5 796.5 756.19 811 739.76 825.5 756.19 825.5 775.5 796.5 775.5" fill="#fff"/>
        <path d="M811,740.51l14,15.87v18.62h-28v-18.62l14-15.87M811,739l-15,17v20h30v-20l-15-17h0Z"/>
      </g>
    </g>
  </g>
</svg>